<svg width="132" height="130" viewBox="0 0 132 130" fill="none" xmlns="http://www.w3.org/2000/svg">
<path d="M57.9636 8.28796C65.7472 8.288 72.918 9.88679 79.2332 13.3514L79.2322 13.3524C79.4759 13.4837 79.7177 13.6169 79.9578 13.7518V9.66785H124.28V120.908H79.9578V116.727C79.6614 116.896 79.3623 117.061 79.0603 117.224L79.0613 117.224C72.7461 120.689 65.5753 122.288 57.7917 122.288C48.6476 122.288 40.1692 119.899 32.5369 115.101L32.4968 115.075L32.4568 115.05C24.8293 110.118 18.8838 103.253 14.572 94.7108L14.5408 94.6503L14.5115 94.5878C10.2856 85.8212 8.28003 75.9364 8.28003 65.1151C8.28008 54.2973 10.2844 44.4504 14.531 35.7743L14.572 35.6923C18.8912 27.1353 24.8595 20.3007 32.5369 15.4745C40.1874 10.6651 48.7274 8.28796 57.9636 8.28796ZM66.5369 48.9862C62.7747 48.9863 59.7367 50.2626 57.0105 53.08C54.7084 55.4616 53.117 59.1371 53.1169 65.1151C53.1169 71.0162 54.6732 74.895 57.0808 77.5653C59.7893 80.3333 62.8064 81.5896 66.5369 81.5897C70.2941 81.5897 73.2346 80.3194 75.821 77.5692L75.8933 77.493C78.3449 74.9587 79.9578 71.1991 79.9578 65.288C79.9578 59.3768 78.3449 55.6172 75.8933 53.0829L75.821 53.0067C73.2346 50.2565 70.2941 48.9862 66.5369 48.9862Z" fill="white" stroke="black" stroke-width="15"/>
</svg>
